<?xml version="1.0" encoding="UTF-8" standalone="no"?>
<!DOCTYPE svg PUBLIC "-//W3C//DTD SVG 1.1//EN" "http://www.w3.org/Graphics/SVG/1.1/DTD/svg11.dtd">
<svg xmlns="http://www.w3.org/2000/svg"
	xmlns:xlink="http://www.w3.org/1999/xlink" version="1.1"
	width="373.58925781249997" height="273.48871999999994"
	xml:space="preserve"> <desc>Created with Fabric.js
1.6.0-rc.1</desc> <defs></defs> <g
	transform="translate(187.65 219.51) scale(1.71 1.71)"> <text
	font-family="Chunky" font-size="40" font-style="italic"
	font-weight="normal"
	style="stroke: none; stroke-width: 1; stroke-dasharray: none; stroke-linecap: butt; stroke-linejoin: miter; stroke-miterlimit: 10; fill: #992900; fill-rule: nonzero; opacity: 1;">
<tspan x="-103.39" y="8.98"
	style="stroke: none; stroke-width: 0; stroke-dasharray: none; stroke-linecap: butt; stroke-linejoin: miter; stroke-miterlimit: 4; fill: #992900; fill-rule: ; opacity: 1;">Z</tspan>
<tspan x="-71.14" y="8.98"
	style="stroke: none; stroke-width: 0; stroke-dasharray: none; stroke-linecap: butt; stroke-linejoin: miter; stroke-miterlimit: 4; fill: #992900; fill-rule: ; opacity: 1;">o</tspan>
<tspan x="-43.02" y="8.98"
	style="stroke: none; stroke-width: 0; stroke-dasharray: none; stroke-linecap: butt; stroke-linejoin: miter; stroke-miterlimit: 4; fill: #992900; fill-rule: ; opacity: 1;">o</tspan>
<tspan x="-14.89" y="8.98"
	style="stroke: none; stroke-width: 0; stroke-dasharray: none; stroke-linecap: butt; stroke-linejoin: miter; stroke-miterlimit: 4; fill: #992900; fill-rule: ; opacity: 1;">
</tspan>
<tspan x="-5.13" y="8.98"
	style="stroke: none; stroke-width: 0; stroke-dasharray: none; stroke-linecap: butt; stroke-linejoin: miter; stroke-miterlimit: 4; fill: #992900; fill-rule: ; opacity: 1;">к</tspan>
<tspan x="13.58" y="8.98"
	style="stroke: none; stroke-width: 0; stroke-dasharray: none; stroke-linecap: butt; stroke-linejoin: miter; stroke-miterlimit: 4; fill: #992900; fill-rule: ; opacity: 1;">о</tspan>
<tspan x="33.58" y="8.98"
	style="stroke: none; stroke-width: 0; stroke-dasharray: none; stroke-linecap: butt; stroke-linejoin: miter; stroke-miterlimit: 4; fill: #992900; fill-rule: ; opacity: 1;">в</tspan>
<tspan x="50.95" y="8.98"
	style="stroke: none; stroke-width: 0; stroke-dasharray: none; stroke-linecap: butt; stroke-linejoin: miter; stroke-miterlimit: 4; fill: #992900; fill-rule: ; opacity: 1;">ч</tspan>
<tspan x="70.03" y="8.98"
	style="stroke: none; stroke-width: 0; stroke-dasharray: none; stroke-linecap: butt; stroke-linejoin: miter; stroke-miterlimit: 4; fill: #992900; fill-rule: ; opacity: 1;">е</tspan>
<tspan x="87.78" y="8.98"
	style="stroke: none; stroke-width: 0; stroke-dasharray: none; stroke-linecap: butt; stroke-linejoin: miter; stroke-miterlimit: 4; fill: #992900; fill-rule: ; opacity: 1;">г</tspan></text>
</g> <g
	style="stroke: none; stroke-width: 1; stroke-dasharray: none; stroke-linecap: butt; stroke-linejoin: miter; stroke-miterlimit: 10; fill: none; fill-rule: nonzero; opacity: 1;"
	transform="translate(130 73.82999999999998) scale(0.23 0.23)"> <path
	d="M 399.88 495.373 H 112.12 c -9.223 0 -16.7 -7.477 -16.7 -16.7 V 162.946 c 0 -4.732 2.007 -9.241 5.522 -12.408 L 244.822 20.92 c 6.354 -5.724 16.002 -5.724 22.356 0 l 143.88 129.617 c 3.515 3.166 5.522 7.677 5.522 12.408 v 315.727 C 416.58 487.896 409.103 495.373 399.88 495.373 z"
	style="stroke: none; stroke-width: 1; stroke-dasharray: none; stroke-linecap: butt; stroke-linejoin: miter; stroke-miterlimit: 10; fill: #99E5FF; fill-rule: nonzero; opacity: 1;"
	transform=" matrix(1 0 0 1 0 0) " stroke-linecap="round" /> <path
	d="M 411.058 150.537 L 267.178 20.92 C 264.001 18.059 260 16.628 256 16.628 v 478.745 h 143.88 c 9.223 0 16.7 -7.477 16.7 -16.7 V 162.946 C 416.58 158.214 414.573 153.704 411.058 150.537 z"
	style="stroke: none; stroke-width: 1; stroke-dasharray: none; stroke-linecap: butt; stroke-linejoin: miter; stroke-miterlimit: 10; fill: #4AD0FF; fill-rule: nonzero; opacity: 1;"
	transform=" matrix(1 0 0 1 0 0) " stroke-linecap="round" /> <path
	d="M 331.627 495.373 H 180.372 V 361.97 c 0 -41.502 32.955 -76.134 74.453 -76.766 c 42.236 -0.645 76.803 33.527 76.803 75.618 V 495.373 z"
	style="stroke: none; stroke-width: 1; stroke-dasharray: none; stroke-linecap: butt; stroke-linejoin: miter; stroke-miterlimit: 10; fill: #325763; fill-rule: nonzero; opacity: 1;"
	transform=" matrix(1 0 0 1 0 0) " stroke-linecap="round" /> <path
	d="M 314.927 219.295 H 197.072 c -9.223 0 -16.7 -7.477 -16.7 -16.7 c 0 -9.223 7.477 -16.7 16.7 -16.7 h 117.854 c 9.223 0 16.7 7.477 16.7 16.7 C 331.626 211.818 324.15 219.295 314.927 219.295 z"
	style="stroke: none; stroke-width: 1; stroke-dasharray: none; stroke-linecap: butt; stroke-linejoin: miter; stroke-miterlimit: 10; fill: #16A5D9; fill-rule: nonzero; opacity: 1;"
	transform=" matrix(1 0 0 1 0 0) " stroke-linecap="round" /> <path
	d="M 484.122 261.309 L 256 55.806 L 27.878 261.309 c -6.854 6.174 -17.413 5.622 -23.585 -1.23 c -6.174 -6.853 -5.622 -17.413 1.23 -23.585 L 244.822 20.92 c 6.353 -5.724 16.002 -5.724 22.355 0 l 239.3 215.573 c 6.853 6.172 7.404 16.733 1.23 23.585 C 501.534 266.932 490.973 267.481 484.122 261.309 z"
	style="stroke: none; stroke-width: 1; stroke-dasharray: none; stroke-linecap: butt; stroke-linejoin: miter; stroke-miterlimit: 10; fill: #FB5858; fill-rule: nonzero; opacity: 1;"
	transform=" matrix(1 0 0 1 0 0) " stroke-linecap="round" /> <path
	d="M 331.627 360.822 c 0 -41.7 -33.929 -75.604 -75.627 -75.606 v 210.157 h 75.627 V 360.822 z"
	style="stroke: none; stroke-width: 1; stroke-dasharray: none; stroke-linecap: butt; stroke-linejoin: miter; stroke-miterlimit: 10; fill: #072F3D; fill-rule: nonzero; opacity: 1;"
	transform=" matrix(1 0 0 1 0 0) " stroke-linecap="round" /> <path
	d="M 314.927 185.894 H 256 v 33.401 h 58.927 c 9.223 0 16.7 -7.477 16.7 -16.7 C 331.627 193.372 324.15 185.894 314.927 185.894 z"
	style="stroke: none; stroke-width: 1; stroke-dasharray: none; stroke-linecap: butt; stroke-linejoin: miter; stroke-miterlimit: 10; fill: #325763; fill-rule: nonzero; opacity: 1;"
	transform=" matrix(1 0 0 1 0 0) " stroke-linecap="round" /> <path
	d="M 506.477 236.493 L 267.177 20.92 c -3.176 -2.861 -7.177 -4.292 -11.178 -4.292 v 39.178 L 484.121 261.31 c 6.85 6.172 17.412 5.624 23.585 -1.23 C 513.881 253.226 513.33 242.667 506.477 236.493 z"
	style="stroke: none; stroke-width: 1; stroke-dasharray: none; stroke-linecap: butt; stroke-linejoin: miter; stroke-miterlimit: 10; fill: #F72349; fill-rule: nonzero; opacity: 1;"
	transform=" matrix(1 0 0 1 0 0) " stroke-linecap="round" /> </g> <g
	transform="translate(35.32 36.72)"> <text font-family="ADAMCG PRO"
	font-size="40" font-weight="normal"
	style="stroke: none; stroke-width: 1; stroke-dasharray: none; stroke-linecap: butt; stroke-linejoin: miter; stroke-miterlimit: 10; fill: #000000; fill-rule: nonzero; opacity: 1;">
<tspan x="0" y="8.98" fill="#000000"></tspan></text> </g> </svg>